<svg xmlns="http://www.w3.org/2000/svg" viewBox="0 0 64 64"><path d="M32 3C16 3 5 13 5 28c0 11 6 20 16 24l-9 8 17-5c1 .1 2 .1 3 .1 16 0 27-11 27-26S48 3 32 3Z" fill="#D9703F" stroke="#151922" stroke-width="4" stroke-linejoin="round"/><circle cx="26" cy="25" r="6" fill="none" stroke="#fff" stroke-width="3.5"/><circle cx="40" cy="27" r="5" fill="none" stroke="#fff" stroke-width="3"/><path d="M14 44c2-8 6-11 12-11s10 3 12 11m1-10c5 0 8 3 10 9" fill="none" stroke="#fff" stroke-width="3.5" stroke-linecap="round"/></svg>